<svg version="1.2" xmlns="http://www.w3.org/2000/svg" viewBox="0 0 2048 542" width="2048" height="542">
	<defs>
		<clipPath clipPathUnits="userSpaceOnUse" id="cp1">
			<path d="m70.29 56.82h420.49v420.48h-420.49z"/>
		</clipPath>
		<clipPath clipPathUnits="userSpaceOnUse" id="cp2">
			<path d="m70.29 111.75v310.58c0 30.34 24.6 54.94 54.93 54.94h310.59c30.34 0 54.93-24.6 54.93-54.94v-310.58c0-30.34-24.59-54.93-54.93-54.93h-310.59c-30.33 0-54.93 24.59-54.93 54.93z"/>
		</clipPath>
		<clipPath clipPathUnits="userSpaceOnUse" id="cp3">
			<path d="m180 200h142.67v146.67h-142.67z"/>
		</clipPath>
		<clipPath clipPathUnits="userSpaceOnUse" id="cp4">
			<path d="m70.29 111.75v310.58c0 30.34 24.6 54.94 54.93 54.94h310.59c30.34 0 54.93-24.6 54.93-54.94v-310.58c0-30.34-24.59-54.93-54.93-54.93h-310.59c-30.33 0-54.93 24.59-54.93 54.93z"/>
		</clipPath>
		<clipPath clipPathUnits="userSpaceOnUse" id="cp5">
			<path d="m340 200h32v146.67h-32z"/>
		</clipPath>
		<clipPath clipPathUnits="userSpaceOnUse" id="cp6">
			<path d="m70.29 111.75v310.58c0 30.34 24.6 54.94 54.93 54.94h310.59c30.34 0 54.93-24.6 54.93-54.94v-310.58c0-30.34-24.59-54.93-54.93-54.93h-310.59c-30.33 0-54.93 24.59-54.93 54.93z"/>
		</clipPath>
	</defs>
	<style>
		.s0 { opacity: .2;fill: #e94f37;stroke: #e94f37;stroke-width: 26.3 } 
		.s1 { fill: #e94f37 } 
		.s2 { fill: #000000 } 
		.s3 { fill: #ed4928 } 
	</style>
	<g id="Clip-Path">
		<g>
		</g>
	</g>
	<g id="Clip-Path" clip-path="url(#cp1)">
		<g>
			<g id="Clip-Path" clip-path="url(#cp2)">
				<g>
					<path class="s0" d="m122.85 56.82h315.36q2.59 0 5.15 0.25 2.58 0.26 5.11 0.76 2.53 0.5 5 1.25 2.47 0.75 4.86 1.74 2.39 0.99 4.66 2.21 2.28 1.21 4.43 2.65 2.15 1.43 4.14 3.07 1.99 1.63 3.82 3.46 1.83 1.83 3.46 3.83 1.65 1.99 3.08 4.14 1.43 2.14 2.65 4.42 1.22 2.28 2.21 4.67 0.98 2.38 1.73 4.85 0.75 2.48 1.26 5.01 0.5 2.53 0.75 5.1 0.26 2.56 0.26 5.15v315.36q0 2.58-0.26 5.15-0.25 2.57-0.75 5.1-0.51 2.53-1.26 5.01-0.75 2.47-1.73 4.85-0.99 2.39-2.21 4.67-1.22 2.28-2.65 4.42-1.43 2.15-3.08 4.14-1.63 2-3.46 3.83-1.83 1.82-3.82 3.46-1.99 1.64-4.14 3.07-2.15 1.44-4.43 2.65-2.27 1.22-4.66 2.21-2.39 0.99-4.86 1.74-2.47 0.75-5 1.25-2.53 0.5-5.11 0.76-2.56 0.25-5.15 0.25h-315.36q-2.58 0-5.15-0.25-2.57-0.26-5.1-0.76-2.53-0.5-5.01-1.25-2.47-0.75-4.85-1.74-2.39-0.99-4.66-2.21-2.28-1.21-4.43-2.65-2.15-1.43-4.14-3.07-2-1.64-3.82-3.46-1.83-1.83-3.47-3.83-1.63-1.99-3.07-4.14-1.43-2.14-2.65-4.42-1.22-2.28-2.21-4.67-0.98-2.38-1.73-4.85-0.75-2.48-1.26-5.01-0.5-2.53-0.75-5.1-0.26-2.57-0.26-5.15v-315.36q0-2.59 0.26-5.15 0.25-2.57 0.75-5.1 0.51-2.53 1.26-5.01 0.75-2.47 1.73-4.85 0.99-2.39 2.21-4.67 1.22-2.28 2.65-4.42 1.44-2.15 3.07-4.14 1.64-2 3.47-3.83 1.82-1.83 3.82-3.46 1.99-1.64 4.14-3.07 2.15-1.44 4.43-2.65 2.27-1.22 4.66-2.21 2.38-0.99 4.85-1.74 2.48-0.75 5.01-1.25 2.53-0.5 5.1-0.76 2.57-0.25 5.15-0.25z"/>
				</g>
			</g>
		</g>
	</g>
	<g id="Clip-Path" clip-path="url(#cp3)">
		<g>
			<g id="Clip-Path" clip-path="url(#cp4)">
				<g>
					<g>
						<g>
							<g>
								<path class="s1" d="m291.72 345.89l-12.83-36.96h-55.13l-12.83 36.96h-30.29l52.77-144.63h35.73l52.54 144.63zm-40.46-122.36l-0.6 2.25q-1.05 3.71-2.48 8.44-1.44 4.71-17.65 51.92h41.57l-14.25-41.57-4.42-13.96z"/>
							</g>
						</g>
					</g>
				</g>
			</g>
		</g>
	</g>
	<g id="Clip-Path" clip-path="url(#cp5)">
		<g>
			<g id="Clip-Path" clip-path="url(#cp6)">
				<g>
					<g>
						<g>
							<g>
								<path class="s1" d="m341.3 345.89v-144.63h30.29v144.63z"/>
							</g>
						</g>
					</g>
				</g>
			</g>
		</g>
	</g>
	<g>
		<g id="Clip-Path">
			<g>
				<g>
					<g>
						<g>
							<path class="s2" d="m739.31 297.23q-0.01 15.62-7.92 27.25-7.92 11.6-22.27 18.04-14.36 6.44-34.21 6.44-19.65 0-34.31-6.65-14.67-6.64-23.23-18.89-8.55-12.25-10.02-28.92h40.31q0.43 10.75 7.29 17.1 6.87 6.34 19.11 6.34 10.35 0 16.58-3.8 6.23-3.81 6.23-11 0-4.85-4.34-8.33-4.33-3.5-11.08-4.75l-27.67-5.29q-18.14-3.58-29.22-14.25-11.09-10.66-11.09-29.02 0-14.14 7.59-25.02 7.6-10.88 20.89-17 13.31-6.13 30.42-6.13 18.16 0 32.21 6.54 14.03 6.55 22.58 18.48 8.56 11.92 9.6 28.4h-40.31q-0.86-10.35-7.29-16.46-6.44-6.12-16.35-6.12-8.88 0-13.96 4.23-5.07 4.21-5.07 10.33 0 5.06 4.44 8.12 4.44 3.07 10.36 4.13l29.35 5.69q20.27 4.02 30.81 14.06 10.57 10.02 10.57 26.48z"/>
						</g>
					</g>
				</g>
				<g>
					<g>
						<g>
							<path class="s2" d="m890.91 195.25v91.21q0 18.37-7.5 32.73-7.48 14.35-22.17 22.6-14.67 8.23-36 8.23-21.52 0-36.21-8.23-14.67-8.25-22.16-22.6-7.5-14.36-7.5-32.73v-91.21h39.91v91.85q0 11.82 5.38 19.52 5.39 7.71 20.58 7.71 15 0 20.38-7.71 5.39-7.7 5.39-19.52v-91.85z"/>
						</g>
					</g>
				</g>
				<g>
					<g>
						<g>
							<path class="s2" d="m988.67 346.85l-32.5-87.41v87.41h-36.12v-151.6h47.1l38.21 102.83 38-102.83h47.08v151.6h-36.1v-88.48l-32.73 88.48z"/>
						</g>
					</g>
				</g>
				<g>
					<g>
						<g>
							<path class="s2" d="m1188.64 346.85l-32.5-87.41v87.41h-36.13v-151.6h47.1l38.21 102.83 38-102.83h47.09v151.6h-36.11v-88.48l-32.73 88.48z"/>
						</g>
					</g>
				</g>
				<g>
					<g>
						<g>
							<path class="s2" d="m1359.89 346.85h-39.92v-151.6h39.92z"/>
						</g>
					</g>
				</g>
				<g>
					<g>
						<g>
							<path class="s2" d="m1464.19 346.85h-39.89v-115.5h-46.46v-36.1h132.81v36.1h-46.46z"/>
						</g>
					</g>
				</g>
			</g>
		</g>
	</g>
	<g>
		<g>
			<g>
				<path class="s3" d="m1655.37 309.63q0 20.27-13.63 31.35-13.6 11.09-36 11.09h-52.35v-151.61h49.19q21.95 0.01 34.31 10.15 12.35 10.12 12.35 28.92 0 11.19-6.64 20.27-6.65 9.08-18.27 13.31 15.41 3.79 23.23 13.29 7.81 9.5 7.81 23.23zm-53.63-96.29h-33.58v54.06h33.58q15.42 0 23.75-7.17 8.34-7.18 8.34-19.85 0-12.69-8.34-19.85-8.33-7.19-23.75-7.19zm3.17 66.94h-36.75v58.91h36.75q16.69 0 25.96-7.91 9.29-7.92 9.29-22.07 0-13.72-9.29-21.33-9.27-7.6-25.96-7.6z"/>
			</g>
		</g>
	</g>
	<g>
		<g>
			<g>
				<path class="s3" d="m1747.01 355.23q-15.83 0-29.35-6.02-13.52-6.02-23.54-16.77-10.02-10.76-15.63-25.23-5.6-14.48-5.6-31.16 0-16.67 5.6-31.02 5.61-14.38 15.63-25.03 10.02-10.66 23.54-16.68 13.52-6.02 29.35-6.02 18.15 0 33.36 7.6 15.2 7.61 25.33 21.13 10.14 13.5 13.11 31.66h-16.69q-2.31-13.52-10.13-23.96-7.81-10.45-19.43-16.37-11.61-5.92-25.55-5.92-16.68 0-29.79 8.46-13.08 8.44-20.58 23.02-7.48 14.56-7.48 33.13 0 18.79 7.48 33.48 7.5 14.67 20.58 23.12 13.11 8.44 29.79 8.44 14.15 0 25.75-6.02 11.63-6.02 19.34-16.46 7.7-10.46 10.02-23.98h16.69q-2.97 17.96-13.11 31.69-10.13 13.71-25.33 21.31-15.21 7.6-33.36 7.6z"/>
			</g>
		</g>
	</g>
	<g>
		<g>
			<g>
				<path class="s3" d="m1947.6 352.07l-88.48-129.23v129.23h-14.77v-151.61h17.52l87.63 127.54v-127.54h15v151.61z"/>
			</g>
		</g>
	</g>
</svg>